<svg width="33" height="26" viewBox="0 0 33 26" fill="none" xmlns="http://www.w3.org/2000/svg">
<path d="M2 11.25C1.0335 11.25 0.25 12.0335 0.25 13C0.25 13.9665 1.0335 14.75 2 14.75V11.25ZM32.2374 14.2374C32.9209 13.554 32.9209 12.446 32.2374 11.7626L21.1005 0.625631C20.4171 -0.0577862 19.309 -0.0577862 18.6256 0.625631C17.9422 1.30905 17.9422 2.41709 18.6256 3.10051L28.5251 13L18.6256 22.8995C17.9422 23.5829 17.9422 24.691 18.6256 25.3744C19.309 26.0578 20.4171 26.0578 21.1005 25.3744L32.2374 14.2374ZM2 14.75H31V11.25H2V14.75Z" fill="white"/>
</svg>
