<svg width="34" height="34" viewBox="0 0 34 34" fill="none" xmlns="http://www.w3.org/2000/svg">
<path d="M12.951 30.5798C10.5773 29.8731 8.46445 28.5611 6.79142 26.8226C7.41555 26.0829 7.79168 25.1271 7.79168 24.0835C7.79168 21.7363 5.88889 19.8335 3.54168 19.8335C3.39969 19.8335 3.25933 19.8406 3.12092 19.8542C2.93236 18.9323 2.83334 17.9779 2.83334 17.0002C2.83334 15.5194 3.06056 14.0916 3.48203 12.7498C3.50188 12.7501 3.52176 12.7502 3.54168 12.7502C5.88889 12.7502 7.79168 10.8474 7.79168 8.50022C7.79168 7.82638 7.63485 7.18923 7.35577 6.62314C8.99407 5.09979 10.9937 3.95974 13.2119 3.3457C13.9148 4.72345 15.3473 5.6669 17 5.6669C18.6528 5.6669 20.0852 4.72345 20.7881 3.3457C23.0063 3.95974 25.0059 5.09979 26.6443 6.62314C26.3652 7.18923 26.2083 7.82638 26.2083 8.50022C26.2083 10.8474 28.1111 12.7502 30.4583 12.7502C30.4782 12.7502 30.4982 12.7501 30.518 12.7498C30.9394 14.0916 31.1667 15.5194 31.1667 17.0002C31.1667 17.9779 31.0677 18.9323 30.8791 19.8542C30.7407 19.8406 30.6004 19.8335 30.4583 19.8335C28.1111 19.8335 26.2083 21.7363 26.2083 24.0835C26.2083 25.1271 26.5845 26.0829 27.2086 26.8226C25.5356 28.5611 23.4227 29.8731 21.049 30.5798C20.5012 28.8661 18.8955 27.6252 17 27.6252C15.1045 27.6252 13.4989 28.8661 12.951 30.5798Z" stroke="white" stroke-width="3" stroke-linejoin="round"/>
<path d="M17 21.9582C19.7384 21.9582 21.9583 19.7383 21.9583 16.9998C21.9583 14.2614 19.7384 12.0415 17 12.0415C14.2616 12.0415 12.0417 14.2614 12.0417 16.9998C12.0417 19.7383 14.2616 21.9582 17 21.9582Z" stroke="white" stroke-width="3" stroke-linejoin="round"/>
</svg>
