<svg width="316" height="496" viewBox="0 0 316 496" fill="none" xmlns="http://www.w3.org/2000/svg">
<mask id="mask0_523_2700" style="mask-type:alpha" maskUnits="userSpaceOnUse" x="10" y="6" width="296" height="476">
<rect x="10" y="6" width="296" height="476" rx="23" fill="#D9D9D9"/>
<rect x="10" y="6" width="296" height="476" rx="23" fill="url(#paint0_linear_523_2700)"/>
</mask>
<g mask="url(#mask0_523_2700)">
<g filter="url(#filter0_d_523_2700)">
<rect x="10" y="6" width="296" height="476" rx="23" fill="#D9D9D9"/>
<rect x="10" y="6" width="296" height="476" rx="23" fill="url(#paint1_linear_523_2700)"/>
</g>
<circle cx="159" cy="236" r="224.008" transform="rotate(30 159 236)" stroke="#F37335" stroke-opacity="0.25" stroke-width="45" stroke-linecap="round" stroke-linejoin="round" stroke-dasharray="5500 5500"/>
<circle cx="159" cy="236" r="134.5" stroke="#FFCE72" stroke-opacity="0.25" stroke-width="53"/>
<circle cx="159" cy="236" r="134.5" stroke="#FFCE72" stroke-opacity="0.25" stroke-width="53"/>
<circle cx="159" cy="236" r="120" fill="#FFDC5C" stroke="#FFDC5C" stroke-width="24"/>
<path d="M108.539 78.64C102.309 78.64 99.1948 75.824 99.1948 70.192V50.352H94.6508C94.3094 50.352 94.0108 50.2453 93.7548 50.032C93.5414 49.776 93.4348 49.4773 93.4348 49.136C93.4348 48.7093 93.6268 48.3467 94.0108 48.048L102.715 39.536C103.099 39.152 103.461 38.96 103.803 38.96C104.144 38.96 104.421 39.088 104.635 39.344C104.891 39.6 105.019 39.8987 105.019 40.24V45.36H112.251C112.976 45.36 113.573 45.5947 114.043 46.064C114.512 46.5333 114.747 47.1307 114.747 47.856C114.747 48.5387 114.512 49.136 114.043 49.648C113.573 50.1173 112.976 50.352 112.251 50.352H105.019V69.68C105.019 71.344 105.403 72.4107 106.171 72.88C106.981 73.3067 107.984 73.52 109.179 73.52C110.032 73.52 110.885 73.392 111.739 73.136C111.909 73.0933 112.08 73.0507 112.251 73.008C112.464 72.9653 112.72 72.944 113.019 72.944C113.616 72.944 114.149 73.1787 114.619 73.648C115.088 74.0747 115.323 74.608 115.323 75.248C115.323 76.2293 114.832 76.976 113.851 77.488C112.187 78.256 110.416 78.64 108.539 78.64ZM124.464 38.704C123.568 38.704 122.8 38.384 122.16 37.744C121.52 37.104 121.2 36.336 121.2 35.44V35.184C121.2 34.288 121.52 33.52 122.16 32.88C122.8 32.24 123.568 31.92 124.464 31.92H124.848C125.744 31.92 126.512 32.24 127.152 32.88C127.792 33.52 128.112 34.288 128.112 35.184V35.44C128.112 36.336 127.792 37.104 127.152 37.744C126.512 38.384 125.744 38.704 124.848 38.704H124.464ZM124.592 78.32C123.782 78.32 123.099 78.0427 122.544 77.488C121.99 76.9333 121.712 76.2507 121.712 75.44V47.984C121.712 47.1733 121.99 46.4907 122.544 45.936C123.099 45.3387 123.782 45.04 124.592 45.04C125.446 45.04 126.15 45.3173 126.704 45.872C127.259 46.4267 127.536 47.1307 127.536 47.984V75.44C127.536 76.2507 127.238 76.9333 126.64 77.488C126.086 78.0427 125.403 78.32 124.592 78.32ZM140.53 93.04C139.719 93.04 139.036 92.7413 138.482 92.144C137.927 91.5893 137.65 90.9067 137.65 90.096V47.92C137.65 47.1093 137.927 46.4267 138.482 45.872C139.036 45.3173 139.719 45.04 140.53 45.04C141.34 45.04 142.023 45.3173 142.578 45.872C143.175 46.4267 143.474 47.1093 143.474 47.92V49.584C146.588 46.3413 150.236 44.72 154.418 44.72C157.063 44.72 159.559 45.4027 161.906 46.768C164.295 48.0907 166.215 50.0533 167.666 52.656C169.159 55.216 169.906 58.224 169.906 61.68C169.906 65.136 169.159 68.1653 167.666 70.768C166.215 73.328 164.295 75.2907 161.906 76.656C159.559 77.9787 157.063 78.64 154.418 78.64C150.236 78.64 146.588 77.0187 143.474 73.776V90.096C143.474 90.9493 143.196 91.6533 142.642 92.208C142.087 92.7627 141.383 93.04 140.53 93.04ZM153.586 73.2C156.743 73.2 159.282 72.1973 161.202 70.192C163.122 68.1867 164.082 65.3493 164.082 61.68C164.082 58.0107 163.122 55.1733 161.202 53.168C159.282 51.1627 156.743 50.16 153.586 50.16C151.623 50.16 149.767 50.608 148.018 51.504C146.311 52.3573 144.796 53.5093 143.474 54.96V68.4C144.796 69.8507 146.311 71.024 148.018 71.92C149.767 72.7733 151.623 73.2 153.586 73.2ZM180.777 38.704C179.881 38.704 179.113 38.384 178.473 37.744C177.833 37.104 177.513 36.336 177.513 35.44V35.184C177.513 34.288 177.833 33.52 178.473 32.88C179.113 32.24 179.881 31.92 180.777 31.92H181.161C182.057 31.92 182.825 32.24 183.465 32.88C184.105 33.52 184.425 34.288 184.425 35.184V35.44C184.425 36.336 184.105 37.104 183.465 37.744C182.825 38.384 182.057 38.704 181.161 38.704H180.777ZM180.905 78.32C180.094 78.32 179.411 78.0427 178.857 77.488C178.302 76.9333 178.025 76.2507 178.025 75.44V47.984C178.025 47.1733 178.302 46.4907 178.857 45.936C179.411 45.3387 180.094 45.04 180.905 45.04C181.758 45.04 182.462 45.3173 183.017 45.872C183.571 46.4267 183.849 47.1307 183.849 47.984V75.44C183.849 76.2507 183.55 76.9333 182.953 77.488C182.398 78.0427 181.715 78.32 180.905 78.32ZM196.842 78.32C196.032 78.32 195.349 78.0427 194.794 77.488C194.24 76.9333 193.962 76.2507 193.962 75.44V33.904C193.962 33.0933 194.24 32.4107 194.794 31.856C195.349 31.2587 196.032 30.96 196.842 30.96C197.653 30.96 198.336 31.2587 198.89 31.856C199.488 32.4107 199.786 33.0933 199.786 33.904V60.08L215.018 46C215.658 45.4453 216.298 45.168 216.938 45.168C217.92 45.168 218.624 45.4453 219.05 46C219.52 46.5547 219.754 47.216 219.754 47.984C219.754 48.7093 219.392 49.4347 218.666 50.16L209.45 58.416L221.034 73.776C221.461 74.3307 221.674 74.9067 221.674 75.504C221.674 76.3573 221.397 77.04 220.842 77.552C220.288 78.064 219.584 78.32 218.73 78.32C218.304 78.32 217.877 78.2133 217.45 78C217.024 77.7867 216.661 77.488 216.362 77.104L205.354 62.128L199.786 67.184V75.44C199.786 76.2507 199.488 76.9333 198.89 77.488C198.336 78.0427 197.653 78.32 196.842 78.32Z" fill="white"/>
</g>
<g clip-path="url(#clip0_523_2700)">
<path d="M159.371 175.341C147.501 175.341 135.898 178.871 126.028 185.486C116.159 192.1 108.467 201.502 103.924 212.501C99.3818 223.501 98.1933 235.604 100.509 247.281C102.825 258.958 108.541 269.685 116.934 278.103C125.327 286.522 136.021 292.255 147.663 294.578C159.304 296.9 171.372 295.708 182.338 291.152C193.304 286.596 202.677 278.88 209.272 268.981C215.866 259.082 219.386 247.443 219.386 235.538C219.386 219.572 213.063 204.261 201.808 192.972C190.553 181.683 175.288 175.341 159.371 175.341ZM127.722 221.429C127.722 219.336 128.341 217.29 129.5 215.55C130.66 213.81 132.307 212.454 134.235 211.653C136.162 210.852 138.284 210.643 140.33 211.051C142.376 211.459 144.256 212.467 145.732 213.947C147.207 215.427 148.212 217.312 148.619 219.365C149.026 221.417 148.817 223.545 148.018 225.478C147.22 227.412 145.868 229.064 144.133 230.227C142.398 231.39 140.358 232.01 138.272 232.01C135.474 232.008 132.792 230.892 130.813 228.909C128.835 226.925 127.721 224.235 127.718 221.429H127.722ZM159.371 267.282C155.214 267.292 151.096 266.475 147.256 264.878C143.416 263.28 139.931 260.934 137.001 257.975C136.666 257.649 136.398 257.26 136.214 256.83C136.03 256.399 135.933 255.936 135.929 255.468C135.925 255 136.014 254.535 136.191 254.102C136.368 253.669 136.63 253.275 136.96 252.944C137.29 252.613 137.683 252.351 138.115 252.174C138.548 251.997 139.011 251.908 139.478 251.912C139.945 251.916 140.406 252.014 140.835 252.199C141.264 252.384 141.652 252.653 141.976 252.99C145.416 256.446 149.801 258.8 154.576 259.755C159.351 260.709 164.301 260.221 168.799 258.353C173.297 256.484 177.141 253.319 179.845 249.257C182.549 245.196 183.99 240.421 183.987 235.538C183.987 234.602 184.357 233.705 185.017 233.044C185.676 232.382 186.571 232.01 187.503 232.01C188.436 232.01 189.33 232.382 189.99 233.044C190.649 233.705 191.02 234.602 191.02 235.538C191.011 243.954 187.674 252.023 181.74 257.975C175.807 263.926 167.762 267.273 159.371 267.282ZM187.503 224.956H166.404C165.708 224.956 165.029 224.748 164.451 224.36C163.873 223.972 163.422 223.42 163.157 222.775C162.891 222.13 162.823 221.421 162.959 220.737C163.096 220.053 163.431 219.425 163.924 218.932L177.99 204.823C178.653 204.181 179.542 203.826 180.464 203.834C181.386 203.843 182.268 204.214 182.919 204.868C183.571 205.523 183.94 206.408 183.948 207.332C183.956 208.257 183.601 209.148 182.96 209.813L174.891 217.902H187.503C188.436 217.902 189.33 218.273 189.99 218.935C190.649 219.596 191.02 220.494 191.02 221.429C191.02 222.364 190.649 223.262 189.99 223.923C189.33 224.585 188.436 224.956 187.503 224.956Z" fill="white"/>
<path d="M159.371 325.701H159.296C131.98 325.231 109.01 315.251 92.8667 296.84C78.5708 280.539 70.6985 258.746 70.6985 235.533C70.6581 223.832 72.7262 212.221 76.8032 201.258C77.0526 200.594 77.43 199.984 77.9141 199.466C78.3981 198.947 78.9793 198.53 79.6243 198.236C80.2693 197.943 80.9656 197.78 81.6734 197.757C82.3812 197.734 83.0867 197.85 83.7495 198.1C84.4123 198.351 85.0195 198.729 85.5365 199.215C86.0534 199.7 86.47 200.283 86.7623 200.93C87.0547 201.577 87.2172 202.275 87.2404 202.985C87.2637 203.695 87.1473 204.403 86.898 205.068C83.2707 214.813 81.4282 225.135 81.4591 235.538C81.4591 256.141 88.3796 275.376 100.941 289.705C115.007 305.747 135.206 314.457 159.366 314.889C160.796 314.859 162.18 315.4 163.212 316.393C164.244 317.387 164.841 318.75 164.871 320.185C164.901 321.619 164.361 323.007 163.371 324.042C162.381 325.077 161.021 325.676 159.591 325.706L159.371 325.701ZM236.833 273.447C235.961 273.448 235.102 273.236 234.329 272.83C233.557 272.423 232.894 271.835 232.398 271.115C231.902 270.396 231.588 269.566 231.483 268.697C231.377 267.829 231.484 266.948 231.793 266.13C235.447 256.356 237.304 245.999 237.274 235.561C237.274 214.958 230.353 195.723 217.792 181.393C203.726 165.338 183.523 156.628 159.371 156.195H159.212C157.782 156.222 156.4 155.677 155.37 154.681C154.34 153.685 153.747 152.32 153.721 150.886C153.695 149.452 154.238 148.065 155.231 147.033C156.224 146 157.585 145.405 159.015 145.379H159.484C186.8 145.849 209.77 155.829 225.913 174.24C240.209 190.541 248.081 212.334 248.081 235.547C248.113 247.302 246.016 258.964 241.892 269.967C241.501 270.994 240.808 271.878 239.904 272.499C239 273.121 237.929 273.452 236.833 273.447Z" fill="white"/>
<path d="M147.424 344C147.247 344.001 147.071 343.993 146.894 343.976L146.552 343.939C116.61 339.847 91.9055 326.58 75.1012 305.577C60.2052 286.963 52 262.626 52 237.047C51.971 218.035 56.4721 199.29 65.1284 182.376C65.7862 181.102 66.9217 180.142 68.285 179.708C69.6484 179.274 71.1279 179.4 72.3982 180.06C73.6684 180.72 74.6253 181.859 75.0584 183.226C75.4915 184.594 75.3652 186.078 74.7074 187.352C66.8411 202.727 62.753 219.766 62.784 237.047C62.784 260.166 70.1453 282.096 83.508 298.801C98.5353 317.579 120.807 329.473 147.917 333.197H147.945C149.317 333.338 150.584 334.002 151.484 335.051C152.384 336.101 152.848 337.456 152.781 338.839C152.714 340.221 152.122 341.526 151.125 342.483C150.129 343.441 148.804 343.978 147.424 343.986V344ZM249.019 291.685C248.093 291.684 247.183 291.443 246.376 290.987C245.57 290.531 244.894 289.874 244.413 289.08C243.933 288.286 243.664 287.381 243.633 286.453C243.602 285.525 243.81 284.604 244.236 283.78C252.142 268.373 256.25 251.29 256.216 233.962C256.216 210.843 248.855 188.913 235.487 172.209C220.46 153.425 198.189 141.532 171.093 137.817H170.919C169.493 137.676 168.181 136.973 167.271 135.862C166.361 134.752 165.929 133.324 166.069 131.893C166.209 130.463 166.91 129.146 168.017 128.234C169.125 127.322 170.548 126.888 171.974 127.028L172.443 127.075C202.385 131.167 227.095 144.433 243.899 165.436C258.795 184.055 267 208.388 267 233.962C267.034 253.029 262.51 271.827 253.806 288.779C253.35 289.656 252.662 290.391 251.818 290.904C250.974 291.416 250.006 291.686 249.019 291.685Z" fill="white"/>
</g>
<defs>
<linearGradient id="paint0_linear_523_2700" x1="158" y1="6" x2="158" y2="482" gradientUnits="userSpaceOnUse">
<stop stop-color="#FDC830"/>
<stop offset="1" stop-color="#F37335"/>
</linearGradient>
<linearGradient id="paint1_linear_523_2700" x1="158" y1="6" x2="158" y2="482" gradientUnits="userSpaceOnUse">
<stop stop-color="#FDC830"/>
<stop offset="1" stop-color="#F37335"/>
</linearGradient>
<clipPath id="clip0_523_2700">
<rect width="215" height="217" fill="white" transform="translate(52 127)"/>
</clipPath>
</defs>
</svg>
