<svg width="34" height="34" viewBox="0 0 34 34" fill="none" xmlns="http://www.w3.org/2000/svg">
<path d="M17 31.1668C24.824 31.1668 31.1667 24.8242 31.1667 17.0002C31.1667 9.17613 24.824 2.8335 17 2.8335C9.17597 2.8335 2.83334 9.17613 2.83334 17.0002C2.83334 24.8242 9.17597 31.1668 17 31.1668Z" stroke="white" stroke-width="3" stroke-linejoin="round"/>
<path d="M12.0417 18.3455C12.8241 18.3455 13.4583 17.7113 13.4583 16.9289C13.4583 16.1464 12.8241 15.5122 12.0417 15.5122C11.2592 15.5122 10.625 16.1464 10.625 16.9289C10.625 17.7113 11.2592 18.3455 12.0417 18.3455Z" fill="white"/>
<path d="M15.5477 20.435C16.445 19.5378 17 18.2982 17 16.929C17 15.5598 16.445 14.3202 15.5477 13.4229" stroke="white" stroke-width="3" stroke-linecap="round" stroke-linejoin="round"/>
<path d="M19.0537 23.9408C20.8483 22.1462 21.9583 19.6671 21.9583 16.9286C21.9583 14.1902 20.8483 11.7111 19.0537 9.9165" stroke="white" stroke-width="3" stroke-linecap="round" stroke-linejoin="round"/>
</svg>
