<svg width="199" height="201" viewBox="0 0 199 201" fill="none" xmlns="http://www.w3.org/2000/svg">
<g clip-path="url(#clip0_108_1685)">
<path d="M99.3806 44.7766C88.394 44.7766 77.6542 48.0467 68.5192 54.1735C59.3842 60.3003 52.2644 69.0086 48.06 79.1971C43.8556 89.3856 42.7556 100.597 44.8989 111.413C47.0423 122.229 52.3328 132.164 60.1015 139.962C67.8702 147.76 77.7681 153.07 88.5435 155.222C99.319 157.373 110.488 156.269 120.638 152.049C130.789 147.829 139.464 140.682 145.568 131.513C151.672 122.343 154.93 111.563 154.93 100.535C154.93 85.7468 149.077 71.5645 138.66 61.1078C128.242 50.6511 114.113 44.7766 99.3806 44.7766ZM70.0872 87.4665C70.0872 85.528 70.6598 83.633 71.7328 82.0212C72.8057 80.4094 74.3307 79.1532 76.1149 78.4113C77.8992 77.6695 79.8625 77.4754 81.7566 77.8536C83.6507 78.2318 85.3906 79.1652 86.7562 80.536C88.1217 81.9067 89.0517 83.6531 89.4285 85.5544C89.8053 87.4556 89.6119 89.4263 88.8728 91.2173C88.1338 93.0082 86.8822 94.539 85.2765 95.616C83.6707 96.6929 81.7829 97.2678 79.8516 97.2678C77.2622 97.2655 74.7795 96.2322 72.9481 94.3948C71.1167 92.5573 70.0863 90.0657 70.0828 87.4665H70.0872ZM99.3806 129.939C95.5328 129.948 91.7214 129.191 88.1672 127.712C84.613 126.232 81.3868 124.059 78.6756 121.318C78.3648 121.016 78.117 120.656 77.9467 120.257C77.7763 119.858 77.6867 119.43 77.6831 118.996C77.6796 118.562 77.7621 118.132 77.926 117.73C78.0898 117.329 78.3317 116.964 78.6374 116.658C78.9432 116.351 79.3067 116.109 79.7068 115.945C80.1068 115.781 80.5355 115.698 80.9676 115.702C81.3998 115.706 81.8269 115.796 82.2239 115.968C82.6209 116.139 82.9799 116.388 83.28 116.7C86.4642 119.901 90.5229 122.082 94.9424 122.966C99.3619 123.85 103.943 123.399 108.107 121.668C112.27 119.937 115.829 117.005 118.331 113.243C120.833 109.481 122.167 105.058 122.164 100.535C122.164 99.6684 122.507 98.8374 123.118 98.2247C123.728 97.612 124.556 97.2678 125.419 97.2678C126.282 97.2678 127.11 97.612 127.721 98.2247C128.331 98.8374 128.674 99.6684 128.674 100.535C128.666 108.331 125.577 115.805 120.085 121.318C114.593 126.83 107.147 129.931 99.3806 129.939ZM125.419 90.7336H105.89C105.246 90.733 104.617 90.5408 104.082 90.1812C103.547 89.8216 103.13 89.3109 102.885 88.7135C102.639 88.1162 102.575 87.4591 102.702 86.8254C102.828 86.1917 103.139 85.6098 103.595 85.1534L116.614 72.0851C117.228 71.4902 118.05 71.1613 118.904 71.1691C119.757 71.177 120.573 71.521 121.176 72.127C121.78 72.733 122.122 73.5526 122.129 74.4093C122.136 75.2659 121.807 76.091 121.214 76.7069L113.745 84.1994H125.419C126.282 84.1994 127.11 84.5436 127.721 85.1563C128.331 85.769 128.674 86.6 128.674 87.4665C128.674 88.333 128.331 89.164 127.721 89.7767C127.11 90.3894 126.282 90.7336 125.419 90.7336Z" fill="white"/>
<path d="M99.3806 184.05H99.3112C74.0277 183.615 52.7672 174.371 37.8254 157.317C24.5934 142.219 17.3069 122.032 17.3069 100.53C17.2695 89.6928 19.1837 78.9374 22.9573 68.7831C23.1881 68.1673 23.5375 67.6031 23.9855 67.1229C24.4336 66.6426 24.9714 66.2556 25.5685 65.984C26.1655 65.7123 26.8099 65.5614 27.4651 65.5398C28.1202 65.5182 28.7732 65.6263 29.3867 65.858C30.0002 66.0897 30.5622 66.4404 31.0407 66.8901C31.5192 67.3398 31.9047 67.8797 32.1753 68.479C32.4459 69.0782 32.5963 69.7251 32.6178 70.3827C32.6394 71.0403 32.5316 71.6957 32.3008 72.3116C28.9435 81.3383 27.2381 90.8996 27.2667 100.535C27.2667 119.619 33.6722 137.436 45.2984 150.709C58.3177 165.567 77.0135 173.635 99.3763 174.036C100.7 174.008 101.98 174.509 102.936 175.429C103.891 176.349 104.444 177.612 104.471 178.941C104.499 180.269 103.999 181.554 103.083 182.514C102.167 183.473 100.908 184.027 99.5846 184.055L99.3806 184.05ZM171.078 135.65C170.271 135.65 169.475 135.453 168.76 135.077C168.045 134.701 167.432 134.156 166.973 133.489C166.514 132.823 166.224 132.054 166.126 131.25C166.028 130.445 166.127 129.629 166.413 128.871C169.795 119.819 171.514 110.225 171.486 100.557C171.486 81.4725 165.08 63.656 153.454 50.3829C140.435 35.5111 121.735 27.4435 99.3806 27.0428H99.2331C97.9094 27.067 96.6304 26.5625 95.6774 25.6402C94.7243 24.7179 94.1754 23.4533 94.1512 22.1247C94.127 20.7961 94.6296 19.5123 95.5485 18.5557C96.4674 17.599 97.7272 17.048 99.0508 17.0237H99.4848C124.768 17.4593 146.029 26.703 160.971 43.7572C174.203 58.8555 181.489 79.0418 181.489 100.544C181.518 111.432 179.577 122.234 175.76 132.426C175.399 133.377 174.757 134.195 173.92 134.771C173.084 135.347 172.092 135.654 171.078 135.65Z" fill="white"/>
<path d="M88.3228 201C88.1591 201.001 87.9954 200.994 87.8324 200.978L87.5156 200.943C59.8019 197.154 36.9356 184.865 21.3819 165.411C7.59448 148.169 -0.000115049 125.626 -0.000115049 101.933C-0.0269785 84.3225 4.13917 66.9604 12.1512 51.2933C12.7601 50.1131 13.8111 49.2241 15.073 48.8218C16.3349 48.4194 17.7043 48.5367 18.88 49.1479C20.0558 49.7591 20.9415 50.814 21.3423 52.0807C21.7431 53.3473 21.6262 54.7219 21.0174 55.9021C13.7365 70.1436 9.95268 85.9259 9.98135 101.933C9.98135 123.348 16.7948 143.66 29.1631 159.133C43.0721 176.527 63.686 187.544 88.7785 190.994H88.8045C90.0751 191.125 91.2475 191.739 92.0802 192.711C92.913 193.683 93.3427 194.939 93.281 196.22C93.2193 197.5 92.6708 198.708 91.7484 199.595C90.826 200.482 89.6 200.98 88.3228 200.987V201ZM182.357 152.543C181.5 152.541 180.657 152.319 179.911 151.896C179.164 151.473 178.539 150.865 178.094 150.13C177.649 149.394 177.401 148.556 177.372 147.696C177.343 146.836 177.536 145.984 177.93 145.22C185.247 130.949 189.05 115.125 189.018 99.0755C189.018 77.6609 182.205 57.3483 169.832 41.8754C155.923 24.477 135.309 13.4604 110.23 10.0191H110.069C108.749 9.8891 107.535 9.23804 106.693 8.20912C105.851 7.18019 105.45 5.85769 105.58 4.53255C105.709 3.2074 106.358 1.98816 107.383 1.14305C108.408 0.297932 109.726 -0.10383 111.046 0.0261424L111.48 0.0697036C139.194 3.85953 162.064 16.1481 177.618 35.6026C191.405 52.8484 199 75.387 199 99.0755C199.031 116.737 194.844 134.149 186.788 149.85C186.365 150.663 185.729 151.344 184.947 151.819C184.166 152.293 183.27 152.544 182.357 152.543Z" fill="white"/>
</g>
<defs>
<clipPath id="clip0_108_1685">
<rect width="199" height="201" fill="white"/>
</clipPath>
</defs>
</svg>
