<svg width="77" height="78" viewBox="0 0 77 78" fill="none" xmlns="http://www.w3.org/2000/svg">
<g clip-path="url(#clip0_342_1922)">
<path d="M38.4538 17.376C34.2028 17.376 30.0471 18.645 26.5125 21.0226C22.9779 23.4001 20.2229 26.7794 18.5961 30.7332C16.9693 34.6869 16.5437 39.0375 17.373 43.2348C18.2023 47.4321 20.2494 51.2875 23.2554 54.3136C26.2614 57.3397 30.0912 59.4004 34.2606 60.2353C38.43 61.0702 42.7517 60.6417 46.6792 59.004C50.6067 57.3663 53.9635 54.593 56.3253 51.0347C58.6871 47.4764 59.9477 43.293 59.9477 39.0135C59.9477 33.2749 57.6832 27.7713 53.6523 23.7135C49.6214 19.6556 44.1544 17.376 38.4538 17.376ZM27.1192 33.9422C27.1192 33.19 27.3408 32.4546 27.7559 31.8291C28.1711 31.2037 28.7612 30.7162 29.4516 30.4283C30.1419 30.1404 30.9016 30.0651 31.6345 30.2118C32.3674 30.3586 33.0406 30.7208 33.569 31.2528C34.0974 31.7847 34.4572 32.4624 34.603 33.2002C34.7488 33.938 34.674 34.7028 34.388 35.3978C34.1021 36.0927 33.6178 36.6868 32.9965 37.1047C32.3752 37.5226 31.6447 37.7457 30.8974 37.7457C29.8955 37.7448 28.9348 37.3439 28.2262 36.6308C27.5176 35.9178 27.1189 34.9509 27.1175 33.9422H27.1192ZM38.4538 50.424C36.965 50.4277 35.4902 50.134 34.115 49.5597C32.7398 48.9854 31.4914 48.1421 30.4423 47.0786C30.3221 46.9616 30.2262 46.8216 30.1603 46.6669C30.0944 46.5122 30.0597 46.3458 30.0583 46.1775C30.057 46.0091 30.0889 45.8422 30.1523 45.6864C30.2157 45.5307 30.3093 45.3891 30.4276 45.2702C30.5459 45.1512 30.6866 45.0571 30.8414 44.9934C30.9962 44.9298 31.162 44.8978 31.3292 44.8993C31.4965 44.9008 31.6617 44.9359 31.8153 45.0024C31.9689 45.0689 32.1079 45.1656 32.224 45.2867C33.456 46.5289 35.0265 47.3751 36.7366 47.7182C38.4466 48.0614 40.2194 47.886 41.8304 47.2143C43.4413 46.5426 44.8181 45.4048 45.7864 43.945C46.7547 42.4851 47.2709 40.7689 47.2697 39.0135C47.2697 38.6773 47.4024 38.3548 47.6385 38.117C47.8747 37.8793 48.1951 37.7457 48.5291 37.7457C48.8631 37.7457 49.1834 37.8793 49.4196 38.117C49.6558 38.3548 49.7885 38.6773 49.7885 39.0135C49.7854 42.0388 48.5902 44.9393 46.4652 47.0785C44.3402 49.2176 41.459 50.4208 38.4538 50.424ZM48.5291 35.2101H40.9727C40.7235 35.2098 40.4801 35.1352 40.273 34.9957C40.066 34.8562 39.9048 34.658 39.8097 34.4261C39.7146 34.1943 39.69 33.9394 39.7388 33.6934C39.7877 33.4475 39.908 33.2217 40.0844 33.0446L45.122 27.9733C45.3596 27.7425 45.6778 27.6148 46.008 27.6179C46.3382 27.6209 46.654 27.7544 46.8874 27.9896C47.1208 28.2248 47.2531 28.5428 47.2558 28.8752C47.2585 29.2077 47.1315 29.5279 46.9019 29.7669L44.012 32.6744H48.5291C48.8631 32.6744 49.1834 32.808 49.4196 33.0457C49.6558 33.2835 49.7885 33.606 49.7885 33.9422C49.7885 34.2785 49.6558 34.601 49.4196 34.8387C49.1834 35.0765 48.8631 35.2101 48.5291 35.2101Z" fill="white"/>
<path d="M38.4538 71.4225H38.427C28.6439 71.2535 20.4175 67.6664 14.636 61.0483C9.51607 55.1893 6.69668 47.3558 6.69668 39.0118C6.6822 34.8061 7.42288 30.6324 8.88301 26.6919C8.97232 26.453 9.10751 26.234 9.28086 26.0477C9.45422 25.8613 9.66234 25.7111 9.89335 25.6057C10.1244 25.5003 10.3737 25.4417 10.6272 25.4333C10.8807 25.4249 11.1334 25.4669 11.3707 25.5568C11.6081 25.6467 11.8256 25.7828 12.0107 25.9573C12.1959 26.1318 12.3451 26.3414 12.4498 26.5739C12.5545 26.8065 12.6127 27.0575 12.621 27.3127C12.6293 27.5679 12.5876 27.8222 12.4983 28.0612C11.1993 31.5641 10.5394 35.2744 10.5505 39.0135C10.5505 46.4193 13.029 53.3332 17.5276 58.4839C22.5652 64.25 29.7992 67.3807 38.4522 67.5362C38.9643 67.5254 39.4597 67.7199 39.8294 68.0769C40.1991 68.4339 40.4128 68.924 40.4235 69.4396C40.4342 69.9552 40.241 70.4539 39.8864 70.8261C39.5318 71.1983 39.0449 71.4134 38.5328 71.4242L38.4538 71.4225ZM66.196 52.6401C65.8836 52.6402 65.5759 52.564 65.2992 52.418C65.0226 52.272 64.7853 52.0605 64.6077 51.8018C64.4302 51.5431 64.3177 51.2449 64.2799 50.9327C64.2421 50.6206 64.2802 50.3038 64.3908 50.0098C65.6995 46.4967 66.3646 42.7739 66.3538 39.022C66.3538 31.6162 63.8753 24.7023 59.3767 19.5515C54.3391 13.7804 47.1034 10.6497 38.4538 10.4942H38.3967C37.8846 10.5036 37.3897 10.3078 37.0209 9.94992C36.6522 9.592 36.4397 9.10128 36.4304 8.5857C36.421 8.07012 36.6155 7.57191 36.9711 7.20069C37.3266 6.82946 37.8141 6.61562 38.3262 6.6062H38.4941C48.2772 6.77524 56.5036 10.3623 62.2851 16.9804C67.405 22.8394 70.2244 30.6729 70.2244 39.0169C70.2358 43.2421 69.4848 47.4342 68.0079 51.3892C67.8679 51.7583 67.6196 52.0758 67.2959 52.2993C66.9722 52.5228 66.5885 52.6417 66.196 52.6401Z" fill="white"/>
<path d="M34.1752 78.0004C34.1118 78.0009 34.0485 77.9981 33.9854 77.9919L33.8629 77.9784C23.1395 76.5077 14.2917 71.739 8.27344 64.1895C2.9386 57.4988 -1.10852e-05 48.7508 -1.10852e-05 39.5565C-0.0104055 32.7226 1.60162 25.985 4.70177 19.9052C4.93736 19.4473 5.34402 19.1023 5.83229 18.9461C6.32056 18.79 6.85045 18.8355 7.30538 19.0727C7.7603 19.3099 8.10301 19.7193 8.25811 20.2108C8.4132 20.7023 8.36798 21.2358 8.13239 21.6937C5.31516 27.2203 3.85107 33.3448 3.86216 39.5565C3.86216 47.8667 6.49852 55.7492 11.2843 61.7536C16.6661 68.5035 24.6423 72.7786 34.3515 74.1175H34.3616C34.8532 74.1682 35.3069 74.4067 35.6291 74.7839C35.9513 75.1611 36.1176 75.6484 36.0937 76.1453C36.0698 76.6422 35.8576 77.111 35.5007 77.4552C35.1438 77.7993 34.6694 77.9927 34.1752 77.9953V78.0004ZM70.5602 59.196C70.2286 59.1955 69.9027 59.1091 69.6138 58.9451C69.3249 58.7811 69.0828 58.5451 68.9107 58.2597C68.7387 57.9742 68.6425 57.649 68.6314 57.3154C68.6203 56.9817 68.6947 56.6507 68.8475 56.3544C71.6786 50.8164 73.1498 44.6759 73.1378 38.4476C73.1378 30.1374 70.5015 22.2549 65.7141 16.2505C60.3322 9.49894 52.356 5.22383 42.6518 3.88839H42.5897C42.0789 3.83795 41.6089 3.5853 41.2831 3.18601C40.9573 2.78673 40.8025 2.27352 40.8526 1.75928C40.9027 1.24505 41.1536 0.771911 41.5503 0.443956C41.9469 0.116001 42.4567 -0.0399066 42.9675 0.0105306L43.1354 0.027435C53.8589 1.49811 62.7083 6.26683 68.7265 13.8163C74.0614 20.5087 77 29.255 77 38.4476C77.0121 45.3013 75.3918 52.0581 72.2747 58.1513C72.1112 58.4667 71.8649 58.7309 71.5626 58.9151C71.2603 59.0993 70.9136 59.1965 70.5602 59.196Z" fill="white"/>
</g>
<defs>
<clipPath id="clip0_342_1922">
<rect width="77" height="78" fill="white"/>
</clipPath>
</defs>
</svg>
