<svg width="34" height="34" viewBox="0 0 34 34" fill="none" xmlns="http://www.w3.org/2000/svg">
<path d="M17 31.1668C20.912 31.1668 24.4537 29.5812 27.0173 27.0175C29.581 24.4538 31.1667 20.9121 31.1667 17.0002C31.1667 13.0882 29.581 9.54651 27.0173 6.98281C24.4537 4.41916 20.912 2.8335 17 2.8335C13.088 2.8335 9.54636 4.41916 6.98266 6.98281C4.419 9.54651 2.83334 13.0882 2.83334 17.0002C2.83334 20.9121 4.419 24.4538 6.98266 27.0175C9.54636 29.5812 13.088 31.1668 17 31.1668Z" stroke="white" stroke-width="3" stroke-linejoin="round"/>
<path d="M17 20.2757V17.4424C19.3472 17.4424 21.25 15.5396 21.25 13.1924C21.25 10.8452 19.3472 8.94238 17 8.94238C14.6528 8.94238 12.75 10.8452 12.75 13.1924" stroke="white" stroke-width="3" stroke-linecap="round" stroke-linejoin="round"/>
<path fill-rule="evenodd" clip-rule="evenodd" d="M17 26.651C17.978 26.651 18.7708 25.8582 18.7708 24.8802C18.7708 23.9022 17.978 23.1094 17 23.1094C16.022 23.1094 15.2292 23.9022 15.2292 24.8802C15.2292 25.8582 16.022 26.651 17 26.651Z" fill="white"/>
</svg>
